<?xml version="1.0" encoding="utf-8" standalone="no"?>
<!DOCTYPE svg PUBLIC "-//W3C//DTD SVG 1.1//EN"
  "http://www.w3.org/Graphics/SVG/1.1/DTD/svg11.dtd">
<svg xmlns:xlink="http://www.w3.org/1999/xlink" width="832.60975pt" height="381.310781pt" viewBox="0 0 832.60975 381.310781" xmlns="http://www.w3.org/2000/svg" version="1.1">
 <metadata>
  <rdf:RDF xmlns:dc="http://purl.org/dc/elements/1.1/" xmlns:cc="http://creativecommons.org/ns#" xmlns:rdf="http://www.w3.org/1999/02/22-rdf-syntax-ns#">
   <cc:Work>
    <dc:type rdf:resource="http://purl.org/dc/dcmitype/StillImage"/>
    <dc:date>2022-11-18T11:22:50.530330</dc:date>
    <dc:format>image/svg+xml</dc:format>
    <dc:creator>
     <cc:Agent>
      <dc:title>Matplotlib v3.5.2, https://matplotlib.org/</dc:title>
     </cc:Agent>
    </dc:creator>
   </cc:Work>
  </rdf:RDF>
 </metadata>
 <defs>
  <style type="text/css">*{stroke-linejoin: round; stroke-linecap: butt}</style>
 </defs>
 <g id="figure_1">
  <g id="patch_1">
   <path d="M 0 381.310781 
L 832.60975 381.310781 
L 832.60975 0 
L 0 0 
z
" style="fill: #ffffff"/>
  </g>
  <g id="axes_1">
   <g id="patch_2">
    <path d="M 48.9575 321.7475 
L 697.35875 321.7475 
L 697.35875 24.8475 
L 48.9575 24.8475 
z
" style="fill: #ffffff"/>
   </g>
   <g id="matplotlib.axis_1">
    <g id="xtick_1">
     <g id="text_1">
      <!-- Vitals -->
      <g style="fill: #262626" transform="translate(114.198622 339.121094)scale(0.11 -0.11)">
       <defs>
        <path id="ArialMT-56" d="M 1803 0 
L 28 4581 
L 684 4581 
L 1875 1253 
Q 2019 853 2116 503 
Q 2222 878 2363 1253 
L 3600 4581 
L 4219 4581 
L 2425 0 
L 1803 0 
z
" transform="scale(0.015625)"/>
        <path id="ArialMT-69" d="M 425 3934 
L 425 4581 
L 988 4581 
L 988 3934 
L 425 3934 
z
M 425 0 
L 425 3319 
L 988 3319 
L 988 0 
L 425 0 
z
" transform="scale(0.015625)"/>
        <path id="ArialMT-74" d="M 1650 503 
L 1731 6 
Q 1494 -44 1306 -44 
Q 1000 -44 831 53 
Q 663 150 594 308 
Q 525 466 525 972 
L 525 2881 
L 113 2881 
L 113 3319 
L 525 3319 
L 525 4141 
L 1084 4478 
L 1084 3319 
L 1650 3319 
L 1650 2881 
L 1084 2881 
L 1084 941 
Q 1084 700 1114 631 
Q 1144 563 1211 522 
Q 1278 481 1403 481 
Q 1497 481 1650 503 
z
" transform="scale(0.015625)"/>
        <path id="ArialMT-61" d="M 2588 409 
Q 2275 144 1986 34 
Q 1697 -75 1366 -75 
Q 819 -75 525 192 
Q 231 459 231 875 
Q 231 1119 342 1320 
Q 453 1522 633 1644 
Q 813 1766 1038 1828 
Q 1203 1872 1538 1913 
Q 2219 1994 2541 2106 
Q 2544 2222 2544 2253 
Q 2544 2597 2384 2738 
Q 2169 2928 1744 2928 
Q 1347 2928 1158 2789 
Q 969 2650 878 2297 
L 328 2372 
Q 403 2725 575 2942 
Q 747 3159 1072 3276 
Q 1397 3394 1825 3394 
Q 2250 3394 2515 3294 
Q 2781 3194 2906 3042 
Q 3031 2891 3081 2659 
Q 3109 2516 3109 2141 
L 3109 1391 
Q 3109 606 3145 398 
Q 3181 191 3288 0 
L 2700 0 
Q 2613 175 2588 409 
z
M 2541 1666 
Q 2234 1541 1622 1453 
Q 1275 1403 1131 1340 
Q 988 1278 909 1158 
Q 831 1038 831 891 
Q 831 666 1001 516 
Q 1172 366 1500 366 
Q 1825 366 2078 508 
Q 2331 650 2450 897 
Q 2541 1088 2541 1459 
L 2541 1666 
z
" transform="scale(0.015625)"/>
        <path id="ArialMT-6c" d="M 409 0 
L 409 4581 
L 972 4581 
L 972 0 
L 409 0 
z
" transform="scale(0.015625)"/>
        <path id="ArialMT-73" d="M 197 991 
L 753 1078 
Q 800 744 1014 566 
Q 1228 388 1613 388 
Q 2000 388 2187 545 
Q 2375 703 2375 916 
Q 2375 1106 2209 1216 
Q 2094 1291 1634 1406 
Q 1016 1563 777 1677 
Q 538 1791 414 1992 
Q 291 2194 291 2438 
Q 291 2659 392 2848 
Q 494 3038 669 3163 
Q 800 3259 1026 3326 
Q 1253 3394 1513 3394 
Q 1903 3394 2198 3281 
Q 2494 3169 2634 2976 
Q 2775 2784 2828 2463 
L 2278 2388 
Q 2241 2644 2061 2787 
Q 1881 2931 1553 2931 
Q 1166 2931 1000 2803 
Q 834 2675 834 2503 
Q 834 2394 903 2306 
Q 972 2216 1119 2156 
Q 1203 2125 1616 2013 
Q 2213 1853 2448 1751 
Q 2684 1650 2818 1456 
Q 2953 1263 2953 975 
Q 2953 694 2789 445 
Q 2625 197 2315 61 
Q 2006 -75 1616 -75 
Q 969 -75 630 194 
Q 291 463 197 991 
z
" transform="scale(0.015625)"/>
       </defs>
       <use xlink:href="#ArialMT-56"/>
       <use xlink:href="#ArialMT-69" x="64.949219"/>
       <use xlink:href="#ArialMT-74" x="87.166016"/>
       <use xlink:href="#ArialMT-61" x="114.949219"/>
       <use xlink:href="#ArialMT-6c" x="170.564453"/>
       <use xlink:href="#ArialMT-73" x="192.78125"/>
      </g>
     </g>
    </g>
    <g id="xtick_2">
     <g id="text_2">
      <!-- &amp; Obs -->
      <g style="fill: #262626" transform="translate(235.071733 339.121094)scale(0.11 -0.11)">
       <defs>
        <path id="ArialMT-26" d="M 3041 541 
Q 2763 231 2434 76 
Q 2106 -78 1725 -78 
Q 1022 -78 609 397 
Q 275 784 275 1263 
Q 275 1688 548 2030 
Q 822 2372 1366 2631 
Q 1056 2988 953 3209 
Q 850 3431 850 3638 
Q 850 4050 1173 4354 
Q 1497 4659 1988 4659 
Q 2456 4659 2754 4371 
Q 3053 4084 3053 3681 
Q 3053 3028 2188 2566 
L 3009 1519 
Q 3150 1794 3228 2156 
L 3813 2031 
Q 3663 1431 3406 1044 
Q 3722 625 4122 341 
L 3744 -106 
Q 3403 113 3041 541 
z
M 1897 2928 
Q 2263 3144 2370 3306 
Q 2478 3469 2478 3666 
Q 2478 3900 2329 4048 
Q 2181 4197 1959 4197 
Q 1731 4197 1579 4050 
Q 1428 3903 1428 3691 
Q 1428 3584 1483 3467 
Q 1538 3350 1647 3219 
L 1897 2928 
z
M 2688 984 
L 1656 2263 
Q 1200 1991 1040 1758 
Q 881 1525 881 1297 
Q 881 1019 1103 719 
Q 1325 419 1731 419 
Q 1984 419 2254 576 
Q 2525 734 2688 984 
z
" transform="scale(0.015625)"/>
        <path id="ArialMT-20" transform="scale(0.015625)"/>
        <path id="ArialMT-4f" d="M 309 2231 
Q 309 3372 921 4017 
Q 1534 4663 2503 4663 
Q 3138 4663 3647 4359 
Q 4156 4056 4423 3514 
Q 4691 2972 4691 2284 
Q 4691 1588 4409 1038 
Q 4128 488 3612 205 
Q 3097 -78 2500 -78 
Q 1853 -78 1343 234 
Q 834 547 571 1087 
Q 309 1628 309 2231 
z
M 934 2222 
Q 934 1394 1379 917 
Q 1825 441 2497 441 
Q 3181 441 3623 922 
Q 4066 1403 4066 2288 
Q 4066 2847 3877 3264 
Q 3688 3681 3323 3911 
Q 2959 4141 2506 4141 
Q 1863 4141 1398 3698 
Q 934 3256 934 2222 
z
" transform="scale(0.015625)"/>
        <path id="ArialMT-62" d="M 941 0 
L 419 0 
L 419 4581 
L 981 4581 
L 981 2947 
Q 1338 3394 1891 3394 
Q 2197 3394 2470 3270 
Q 2744 3147 2920 2923 
Q 3097 2700 3197 2384 
Q 3297 2069 3297 1709 
Q 3297 856 2875 390 
Q 2453 -75 1863 -75 
Q 1275 -75 941 416 
L 941 0 
z
M 934 1684 
Q 934 1088 1097 822 
Q 1363 388 1816 388 
Q 2184 388 2453 708 
Q 2722 1028 2722 1663 
Q 2722 2313 2464 2622 
Q 2206 2931 1841 2931 
Q 1472 2931 1203 2611 
Q 934 2291 934 1684 
z
" transform="scale(0.015625)"/>
       </defs>
       <use xlink:href="#ArialMT-26"/>
       <use xlink:href="#ArialMT-20" x="66.699219"/>
       <use xlink:href="#ArialMT-4f" x="94.482422"/>
       <use xlink:href="#ArialMT-62" x="172.265625"/>
       <use xlink:href="#ArialMT-73" x="227.880859"/>
      </g>
     </g>
    </g>
    <g id="xtick_3">
     <g id="text_3">
      <!-- &amp; Labs -->
      <g style="fill: #262626" transform="translate(356.035938 339.121094)scale(0.11 -0.11)">
       <defs>
        <path id="ArialMT-4c" d="M 469 0 
L 469 4581 
L 1075 4581 
L 1075 541 
L 3331 541 
L 3331 0 
L 469 0 
z
" transform="scale(0.015625)"/>
       </defs>
       <use xlink:href="#ArialMT-26"/>
       <use xlink:href="#ArialMT-20" x="66.699219"/>
       <use xlink:href="#ArialMT-4c" x="94.482422"/>
       <use xlink:href="#ArialMT-61" x="150.097656"/>
       <use xlink:href="#ArialMT-62" x="205.712891"/>
       <use xlink:href="#ArialMT-73" x="261.328125"/>
      </g>
     </g>
    </g>
    <g id="xtick_4">
     <g id="text_4">
      <!-- &amp; Notes -->
      <g style="fill: #262626" transform="translate(476.39772 339.121094)scale(0.11 -0.11)">
       <defs>
        <path id="ArialMT-4e" d="M 488 0 
L 488 4581 
L 1109 4581 
L 3516 984 
L 3516 4581 
L 4097 4581 
L 4097 0 
L 3475 0 
L 1069 3600 
L 1069 0 
L 488 0 
z
" transform="scale(0.015625)"/>
        <path id="ArialMT-6f" d="M 213 1659 
Q 213 2581 725 3025 
Q 1153 3394 1769 3394 
Q 2453 3394 2887 2945 
Q 3322 2497 3322 1706 
Q 3322 1066 3130 698 
Q 2938 331 2570 128 
Q 2203 -75 1769 -75 
Q 1072 -75 642 372 
Q 213 819 213 1659 
z
M 791 1659 
Q 791 1022 1069 705 
Q 1347 388 1769 388 
Q 2188 388 2466 706 
Q 2744 1025 2744 1678 
Q 2744 2294 2464 2611 
Q 2184 2928 1769 2928 
Q 1347 2928 1069 2612 
Q 791 2297 791 1659 
z
" transform="scale(0.015625)"/>
        <path id="ArialMT-65" d="M 2694 1069 
L 3275 997 
Q 3138 488 2766 206 
Q 2394 -75 1816 -75 
Q 1088 -75 661 373 
Q 234 822 234 1631 
Q 234 2469 665 2931 
Q 1097 3394 1784 3394 
Q 2450 3394 2872 2941 
Q 3294 2488 3294 1666 
Q 3294 1616 3291 1516 
L 816 1516 
Q 847 969 1125 678 
Q 1403 388 1819 388 
Q 2128 388 2347 550 
Q 2566 713 2694 1069 
z
M 847 1978 
L 2700 1978 
Q 2663 2397 2488 2606 
Q 2219 2931 1791 2931 
Q 1403 2931 1139 2672 
Q 875 2413 847 1978 
z
" transform="scale(0.015625)"/>
       </defs>
       <use xlink:href="#ArialMT-26"/>
       <use xlink:href="#ArialMT-20" x="66.699219"/>
       <use xlink:href="#ArialMT-4e" x="94.482422"/>
       <use xlink:href="#ArialMT-6f" x="166.699219"/>
       <use xlink:href="#ArialMT-74" x="222.314453"/>
       <use xlink:href="#ArialMT-65" x="250.097656"/>
       <use xlink:href="#ArialMT-73" x="305.712891"/>
      </g>
     </g>
    </g>
    <g id="xtick_5">
     <g id="text_5">
      <!-- &amp; Services -->
      <g style="fill: #262626" transform="translate(592.478956 339.121094)scale(0.11 -0.11)">
       <defs>
        <path id="ArialMT-53" d="M 288 1472 
L 859 1522 
Q 900 1178 1048 958 
Q 1197 738 1509 602 
Q 1822 466 2213 466 
Q 2559 466 2825 569 
Q 3091 672 3220 851 
Q 3350 1031 3350 1244 
Q 3350 1459 3225 1620 
Q 3100 1781 2813 1891 
Q 2628 1963 1997 2114 
Q 1366 2266 1113 2400 
Q 784 2572 623 2826 
Q 463 3081 463 3397 
Q 463 3744 659 4045 
Q 856 4347 1234 4503 
Q 1613 4659 2075 4659 
Q 2584 4659 2973 4495 
Q 3363 4331 3572 4012 
Q 3781 3694 3797 3291 
L 3216 3247 
Q 3169 3681 2898 3903 
Q 2628 4125 2100 4125 
Q 1550 4125 1298 3923 
Q 1047 3722 1047 3438 
Q 1047 3191 1225 3031 
Q 1400 2872 2139 2705 
Q 2878 2538 3153 2413 
Q 3553 2228 3743 1945 
Q 3934 1663 3934 1294 
Q 3934 928 3725 604 
Q 3516 281 3123 101 
Q 2731 -78 2241 -78 
Q 1619 -78 1198 103 
Q 778 284 539 648 
Q 300 1013 288 1472 
z
" transform="scale(0.015625)"/>
        <path id="ArialMT-72" d="M 416 0 
L 416 3319 
L 922 3319 
L 922 2816 
Q 1116 3169 1280 3281 
Q 1444 3394 1641 3394 
Q 1925 3394 2219 3213 
L 2025 2691 
Q 1819 2813 1613 2813 
Q 1428 2813 1281 2702 
Q 1134 2591 1072 2394 
Q 978 2094 978 1738 
L 978 0 
L 416 0 
z
" transform="scale(0.015625)"/>
        <path id="ArialMT-76" d="M 1344 0 
L 81 3319 
L 675 3319 
L 1388 1331 
Q 1503 1009 1600 663 
Q 1675 925 1809 1294 
L 2547 3319 
L 3125 3319 
L 1869 0 
L 1344 0 
z
" transform="scale(0.015625)"/>
        <path id="ArialMT-63" d="M 2588 1216 
L 3141 1144 
Q 3050 572 2676 248 
Q 2303 -75 1759 -75 
Q 1078 -75 664 370 
Q 250 816 250 1647 
Q 250 2184 428 2587 
Q 606 2991 970 3192 
Q 1334 3394 1763 3394 
Q 2303 3394 2647 3120 
Q 2991 2847 3088 2344 
L 2541 2259 
Q 2463 2594 2264 2762 
Q 2066 2931 1784 2931 
Q 1359 2931 1093 2626 
Q 828 2322 828 1663 
Q 828 994 1084 691 
Q 1341 388 1753 388 
Q 2084 388 2306 591 
Q 2528 794 2588 1216 
z
" transform="scale(0.015625)"/>
       </defs>
       <use xlink:href="#ArialMT-26"/>
       <use xlink:href="#ArialMT-20" x="66.699219"/>
       <use xlink:href="#ArialMT-53" x="94.482422"/>
       <use xlink:href="#ArialMT-65" x="161.181641"/>
       <use xlink:href="#ArialMT-72" x="216.796875"/>
       <use xlink:href="#ArialMT-76" x="250.097656"/>
       <use xlink:href="#ArialMT-69" x="300.097656"/>
       <use xlink:href="#ArialMT-63" x="322.314453"/>
       <use xlink:href="#ArialMT-65" x="372.314453"/>
       <use xlink:href="#ArialMT-73" x="427.929688"/>
      </g>
     </g>
    </g>
    <g id="text_6">
     <!-- Feature Set -->
     <g style="fill: #262626" transform="translate(336.585313 371.328281)scale(0.14 -0.14)">
      <defs>
       <path id="ArialMT-46" d="M 525 0 
L 525 4581 
L 3616 4581 
L 3616 4041 
L 1131 4041 
L 1131 2622 
L 3281 2622 
L 3281 2081 
L 1131 2081 
L 1131 0 
L 525 0 
z
" transform="scale(0.015625)"/>
       <path id="ArialMT-75" d="M 2597 0 
L 2597 488 
Q 2209 -75 1544 -75 
Q 1250 -75 995 37 
Q 741 150 617 320 
Q 494 491 444 738 
Q 409 903 409 1263 
L 409 3319 
L 972 3319 
L 972 1478 
Q 972 1038 1006 884 
Q 1059 663 1231 536 
Q 1403 409 1656 409 
Q 1909 409 2131 539 
Q 2353 669 2445 892 
Q 2538 1116 2538 1541 
L 2538 3319 
L 3100 3319 
L 3100 0 
L 2597 0 
z
" transform="scale(0.015625)"/>
      </defs>
      <use xlink:href="#ArialMT-46"/>
      <use xlink:href="#ArialMT-65" x="61.083984"/>
      <use xlink:href="#ArialMT-61" x="116.699219"/>
      <use xlink:href="#ArialMT-74" x="172.314453"/>
      <use xlink:href="#ArialMT-75" x="200.097656"/>
      <use xlink:href="#ArialMT-72" x="255.712891"/>
      <use xlink:href="#ArialMT-65" x="289.013672"/>
      <use xlink:href="#ArialMT-20" x="344.628906"/>
      <use xlink:href="#ArialMT-53" x="372.412109"/>
      <use xlink:href="#ArialMT-65" x="439.111328"/>
      <use xlink:href="#ArialMT-74" x="494.726562"/>
     </g>
    </g>
   </g>
   <g id="matplotlib.axis_2">
    <g id="ytick_1">
     <g id="line2d_1">
      <path d="M 48.9575 321.7475 
L 697.35875 321.7475 
" clip-path="url(#p0965ac5936)" style="fill: none; stroke: #cccccc; stroke-linecap: round"/>
     </g>
     <g id="text_7">
      <!-- 0.0 -->
      <g style="fill: #262626" transform="translate(24.1675 325.684297)scale(0.11 -0.11)">
       <defs>
        <path id="ArialMT-30" d="M 266 2259 
Q 266 3072 433 3567 
Q 600 4063 929 4331 
Q 1259 4600 1759 4600 
Q 2128 4600 2406 4451 
Q 2684 4303 2865 4023 
Q 3047 3744 3150 3342 
Q 3253 2941 3253 2259 
Q 3253 1453 3087 958 
Q 2922 463 2592 192 
Q 2263 -78 1759 -78 
Q 1097 -78 719 397 
Q 266 969 266 2259 
z
M 844 2259 
Q 844 1131 1108 757 
Q 1372 384 1759 384 
Q 2147 384 2411 759 
Q 2675 1134 2675 2259 
Q 2675 3391 2411 3762 
Q 2147 4134 1753 4134 
Q 1366 4134 1134 3806 
Q 844 3388 844 2259 
z
" transform="scale(0.015625)"/>
        <path id="ArialMT-2e" d="M 581 0 
L 581 641 
L 1222 641 
L 1222 0 
L 581 0 
z
" transform="scale(0.015625)"/>
       </defs>
       <use xlink:href="#ArialMT-30"/>
       <use xlink:href="#ArialMT-2e" x="55.615234"/>
       <use xlink:href="#ArialMT-30" x="83.398438"/>
      </g>
     </g>
    </g>
    <g id="ytick_2">
     <g id="line2d_2">
      <path d="M 48.9575 272.264167 
L 697.35875 272.264167 
" clip-path="url(#p0965ac5936)" style="fill: none; stroke: #cccccc; stroke-linecap: round"/>
     </g>
     <g id="text_8">
      <!-- 0.1 -->
      <g style="fill: #262626" transform="translate(24.1675 276.200964)scale(0.11 -0.11)">
       <defs>
        <path id="ArialMT-31" d="M 2384 0 
L 1822 0 
L 1822 3584 
Q 1619 3391 1289 3197 
Q 959 3003 697 2906 
L 697 3450 
Q 1169 3672 1522 3987 
Q 1875 4303 2022 4600 
L 2384 4600 
L 2384 0 
z
" transform="scale(0.015625)"/>
       </defs>
       <use xlink:href="#ArialMT-30"/>
       <use xlink:href="#ArialMT-2e" x="55.615234"/>
       <use xlink:href="#ArialMT-31" x="83.398438"/>
      </g>
     </g>
    </g>
    <g id="ytick_3">
     <g id="line2d_3">
      <path d="M 48.9575 222.780833 
L 697.35875 222.780833 
" clip-path="url(#p0965ac5936)" style="fill: none; stroke: #cccccc; stroke-linecap: round"/>
     </g>
     <g id="text_9">
      <!-- 0.2 -->
      <g style="fill: #262626" transform="translate(24.1675 226.71763)scale(0.11 -0.11)">
       <defs>
        <path id="ArialMT-32" d="M 3222 541 
L 3222 0 
L 194 0 
Q 188 203 259 391 
Q 375 700 629 1000 
Q 884 1300 1366 1694 
Q 2113 2306 2375 2664 
Q 2638 3022 2638 3341 
Q 2638 3675 2398 3904 
Q 2159 4134 1775 4134 
Q 1369 4134 1125 3890 
Q 881 3647 878 3216 
L 300 3275 
Q 359 3922 746 4261 
Q 1134 4600 1788 4600 
Q 2447 4600 2831 4234 
Q 3216 3869 3216 3328 
Q 3216 3053 3103 2787 
Q 2991 2522 2730 2228 
Q 2469 1934 1863 1422 
Q 1356 997 1212 845 
Q 1069 694 975 541 
L 3222 541 
z
" transform="scale(0.015625)"/>
       </defs>
       <use xlink:href="#ArialMT-30"/>
       <use xlink:href="#ArialMT-2e" x="55.615234"/>
       <use xlink:href="#ArialMT-32" x="83.398438"/>
      </g>
     </g>
    </g>
    <g id="ytick_4">
     <g id="line2d_4">
      <path d="M 48.9575 173.2975 
L 697.35875 173.2975 
" clip-path="url(#p0965ac5936)" style="fill: none; stroke: #cccccc; stroke-linecap: round"/>
     </g>
     <g id="text_10">
      <!-- 0.3 -->
      <g style="fill: #262626" transform="translate(24.1675 177.234297)scale(0.11 -0.11)">
       <defs>
        <path id="ArialMT-33" d="M 269 1209 
L 831 1284 
Q 928 806 1161 595 
Q 1394 384 1728 384 
Q 2125 384 2398 659 
Q 2672 934 2672 1341 
Q 2672 1728 2419 1979 
Q 2166 2231 1775 2231 
Q 1616 2231 1378 2169 
L 1441 2663 
Q 1497 2656 1531 2656 
Q 1891 2656 2178 2843 
Q 2466 3031 2466 3422 
Q 2466 3731 2256 3934 
Q 2047 4138 1716 4138 
Q 1388 4138 1169 3931 
Q 950 3725 888 3313 
L 325 3413 
Q 428 3978 793 4289 
Q 1159 4600 1703 4600 
Q 2078 4600 2393 4439 
Q 2709 4278 2876 4000 
Q 3044 3722 3044 3409 
Q 3044 3113 2884 2869 
Q 2725 2625 2413 2481 
Q 2819 2388 3044 2092 
Q 3269 1797 3269 1353 
Q 3269 753 2831 336 
Q 2394 -81 1725 -81 
Q 1122 -81 723 278 
Q 325 638 269 1209 
z
" transform="scale(0.015625)"/>
       </defs>
       <use xlink:href="#ArialMT-30"/>
       <use xlink:href="#ArialMT-2e" x="55.615234"/>
       <use xlink:href="#ArialMT-33" x="83.398438"/>
      </g>
     </g>
    </g>
    <g id="ytick_5">
     <g id="line2d_5">
      <path d="M 48.9575 123.814167 
L 697.35875 123.814167 
" clip-path="url(#p0965ac5936)" style="fill: none; stroke: #cccccc; stroke-linecap: round"/>
     </g>
     <g id="text_11">
      <!-- 0.4 -->
      <g style="fill: #262626" transform="translate(24.1675 127.750964)scale(0.11 -0.11)">
       <defs>
        <path id="ArialMT-34" d="M 2069 0 
L 2069 1097 
L 81 1097 
L 81 1613 
L 2172 4581 
L 2631 4581 
L 2631 1613 
L 3250 1613 
L 3250 1097 
L 2631 1097 
L 2631 0 
L 2069 0 
z
M 2069 1613 
L 2069 3678 
L 634 1613 
L 2069 1613 
z
" transform="scale(0.015625)"/>
       </defs>
       <use xlink:href="#ArialMT-30"/>
       <use xlink:href="#ArialMT-2e" x="55.615234"/>
       <use xlink:href="#ArialMT-34" x="83.398438"/>
      </g>
     </g>
    </g>
    <g id="ytick_6">
     <g id="line2d_6">
      <path d="M 48.9575 74.330833 
L 697.35875 74.330833 
" clip-path="url(#p0965ac5936)" style="fill: none; stroke: #cccccc; stroke-linecap: round"/>
     </g>
     <g id="text_12">
      <!-- 0.5 -->
      <g style="fill: #262626" transform="translate(24.1675 78.26763)scale(0.11 -0.11)">
       <defs>
        <path id="ArialMT-35" d="M 266 1200 
L 856 1250 
Q 922 819 1161 601 
Q 1400 384 1738 384 
Q 2144 384 2425 690 
Q 2706 997 2706 1503 
Q 2706 1984 2436 2262 
Q 2166 2541 1728 2541 
Q 1456 2541 1237 2417 
Q 1019 2294 894 2097 
L 366 2166 
L 809 4519 
L 3088 4519 
L 3088 3981 
L 1259 3981 
L 1013 2750 
Q 1425 3038 1878 3038 
Q 2478 3038 2890 2622 
Q 3303 2206 3303 1553 
Q 3303 931 2941 478 
Q 2500 -78 1738 -78 
Q 1113 -78 717 272 
Q 322 622 266 1200 
z
" transform="scale(0.015625)"/>
       </defs>
       <use xlink:href="#ArialMT-30"/>
       <use xlink:href="#ArialMT-2e" x="55.615234"/>
       <use xlink:href="#ArialMT-35" x="83.398438"/>
      </g>
     </g>
    </g>
    <g id="ytick_7">
     <g id="line2d_7">
      <path d="M 48.9575 24.8475 
L 697.35875 24.8475 
" clip-path="url(#p0965ac5936)" style="fill: none; stroke: #cccccc; stroke-linecap: round"/>
     </g>
     <g id="text_13">
      <!-- 0.6 -->
      <g style="fill: #262626" transform="translate(24.1675 28.784297)scale(0.11 -0.11)">
       <defs>
        <path id="ArialMT-36" d="M 3184 3459 
L 2625 3416 
Q 2550 3747 2413 3897 
Q 2184 4138 1850 4138 
Q 1581 4138 1378 3988 
Q 1113 3794 959 3422 
Q 806 3050 800 2363 
Q 1003 2672 1297 2822 
Q 1591 2972 1913 2972 
Q 2475 2972 2870 2558 
Q 3266 2144 3266 1488 
Q 3266 1056 3080 686 
Q 2894 316 2569 119 
Q 2244 -78 1831 -78 
Q 1128 -78 684 439 
Q 241 956 241 2144 
Q 241 3472 731 4075 
Q 1159 4600 1884 4600 
Q 2425 4600 2770 4297 
Q 3116 3994 3184 3459 
z
M 888 1484 
Q 888 1194 1011 928 
Q 1134 663 1356 523 
Q 1578 384 1822 384 
Q 2178 384 2434 671 
Q 2691 959 2691 1453 
Q 2691 1928 2437 2201 
Q 2184 2475 1800 2475 
Q 1419 2475 1153 2201 
Q 888 1928 888 1484 
z
" transform="scale(0.015625)"/>
       </defs>
       <use xlink:href="#ArialMT-30"/>
       <use xlink:href="#ArialMT-2e" x="55.615234"/>
       <use xlink:href="#ArialMT-36" x="83.398438"/>
      </g>
     </g>
    </g>
    <g id="text_14">
     <!-- Average Precision -->
     <g style="fill: #262626" transform="translate(17.220938 229.978906)rotate(-90)scale(0.14 -0.14)">
      <defs>
       <path id="ArialMT-41" d="M -9 0 
L 1750 4581 
L 2403 4581 
L 4278 0 
L 3588 0 
L 3053 1388 
L 1138 1388 
L 634 0 
L -9 0 
z
M 1313 1881 
L 2866 1881 
L 2388 3150 
Q 2169 3728 2063 4100 
Q 1975 3659 1816 3225 
L 1313 1881 
z
" transform="scale(0.015625)"/>
       <path id="ArialMT-67" d="M 319 -275 
L 866 -356 
Q 900 -609 1056 -725 
Q 1266 -881 1628 -881 
Q 2019 -881 2231 -725 
Q 2444 -569 2519 -288 
Q 2563 -116 2559 434 
Q 2191 0 1641 0 
Q 956 0 581 494 
Q 206 988 206 1678 
Q 206 2153 378 2554 
Q 550 2956 876 3175 
Q 1203 3394 1644 3394 
Q 2231 3394 2613 2919 
L 2613 3319 
L 3131 3319 
L 3131 450 
Q 3131 -325 2973 -648 
Q 2816 -972 2473 -1159 
Q 2131 -1347 1631 -1347 
Q 1038 -1347 672 -1080 
Q 306 -813 319 -275 
z
M 784 1719 
Q 784 1066 1043 766 
Q 1303 466 1694 466 
Q 2081 466 2343 764 
Q 2606 1063 2606 1700 
Q 2606 2309 2336 2618 
Q 2066 2928 1684 2928 
Q 1309 2928 1046 2623 
Q 784 2319 784 1719 
z
" transform="scale(0.015625)"/>
       <path id="ArialMT-50" d="M 494 0 
L 494 4581 
L 2222 4581 
Q 2678 4581 2919 4538 
Q 3256 4481 3484 4323 
Q 3713 4166 3852 3881 
Q 3991 3597 3991 3256 
Q 3991 2672 3619 2267 
Q 3247 1863 2275 1863 
L 1100 1863 
L 1100 0 
L 494 0 
z
M 1100 2403 
L 2284 2403 
Q 2872 2403 3119 2622 
Q 3366 2841 3366 3238 
Q 3366 3525 3220 3729 
Q 3075 3934 2838 4000 
Q 2684 4041 2272 4041 
L 1100 4041 
L 1100 2403 
z
" transform="scale(0.015625)"/>
       <path id="ArialMT-6e" d="M 422 0 
L 422 3319 
L 928 3319 
L 928 2847 
Q 1294 3394 1984 3394 
Q 2284 3394 2536 3286 
Q 2788 3178 2913 3003 
Q 3038 2828 3088 2588 
Q 3119 2431 3119 2041 
L 3119 0 
L 2556 0 
L 2556 2019 
Q 2556 2363 2490 2533 
Q 2425 2703 2258 2804 
Q 2091 2906 1866 2906 
Q 1506 2906 1245 2678 
Q 984 2450 984 1813 
L 984 0 
L 422 0 
z
" transform="scale(0.015625)"/>
      </defs>
      <use xlink:href="#ArialMT-41"/>
      <use xlink:href="#ArialMT-76" x="64.949219"/>
      <use xlink:href="#ArialMT-65" x="114.949219"/>
      <use xlink:href="#ArialMT-72" x="170.564453"/>
      <use xlink:href="#ArialMT-61" x="203.865234"/>
      <use xlink:href="#ArialMT-67" x="259.480469"/>
      <use xlink:href="#ArialMT-65" x="315.095703"/>
      <use xlink:href="#ArialMT-20" x="370.710938"/>
      <use xlink:href="#ArialMT-50" x="398.494141"/>
      <use xlink:href="#ArialMT-72" x="465.193359"/>
      <use xlink:href="#ArialMT-65" x="498.494141"/>
      <use xlink:href="#ArialMT-63" x="554.109375"/>
      <use xlink:href="#ArialMT-69" x="604.109375"/>
      <use xlink:href="#ArialMT-73" x="626.326172"/>
      <use xlink:href="#ArialMT-69" x="676.326172"/>
      <use xlink:href="#ArialMT-6f" x="698.542969"/>
      <use xlink:href="#ArialMT-6e" x="754.158203"/>
     </g>
    </g>
   </g>
   <g id="patch_3">
    <path d="M 78.430284 321.7475 
L 92.464943 321.7475 
L 92.464943 237.818458 
L 78.430284 237.818458 
z
" clip-path="url(#p0965ac5936)" style="fill: #597dbf; stroke: #ffffff; stroke-linejoin: miter"/>
   </g>
   <g id="patch_4">
    <path d="M 201.233551 321.7475 
L 215.26821 321.7475 
L 215.26821 169.471628 
L 201.233551 169.471628 
z
" clip-path="url(#p0965ac5936)" style="fill: #597dbf; stroke: #ffffff; stroke-linejoin: miter"/>
   </g>
   <g id="patch_5">
    <path d="M 324.036818 321.7475 
L 338.071477 321.7475 
L 338.071477 169.120211 
L 324.036818 169.120211 
z
" clip-path="url(#p0965ac5936)" style="fill: #597dbf; stroke: #ffffff; stroke-linejoin: miter"/>
   </g>
   <g id="patch_6">
    <path d="M 446.840085 321.7475 
L 460.874744 321.7475 
L 460.874744 166.930753 
L 446.840085 166.930753 
z
" clip-path="url(#p0965ac5936)" style="fill: #597dbf; stroke: #ffffff; stroke-linejoin: miter"/>
   </g>
   <g id="patch_7">
    <path d="M 569.643352 321.7475 
L 583.678011 321.7475 
L 583.678011 73.982381 
L 569.643352 73.982381 
z
" clip-path="url(#p0965ac5936)" style="fill: #597dbf; stroke: #ffffff; stroke-linejoin: miter"/>
   </g>
   <g id="patch_8">
    <path d="M 92.464943 321.7475 
L 106.499602 321.7475 
L 106.499602 238.228525 
L 92.464943 238.228525 
z
" clip-path="url(#p0965ac5936)" style="fill: #d98b5f; stroke: #ffffff; stroke-linejoin: miter"/>
   </g>
   <g id="patch_9">
    <path d="M 215.26821 321.7475 
L 229.302869 321.7475 
L 229.302869 169.686415 
L 215.26821 169.686415 
z
" clip-path="url(#p0965ac5936)" style="fill: #d98b5f; stroke: #ffffff; stroke-linejoin: miter"/>
   </g>
   <g id="patch_10">
    <path d="M 338.071477 321.7475 
L 352.106136 321.7475 
L 352.106136 169.12573 
L 338.071477 169.12573 
z
" clip-path="url(#p0965ac5936)" style="fill: #d98b5f; stroke: #ffffff; stroke-linejoin: miter"/>
   </g>
   <g id="patch_11">
    <path d="M 460.874744 321.7475 
L 474.909403 321.7475 
L 474.909403 166.268506 
L 460.874744 166.268506 
z
" clip-path="url(#p0965ac5936)" style="fill: #d98b5f; stroke: #ffffff; stroke-linejoin: miter"/>
   </g>
   <g id="patch_12">
    <path d="M 583.678011 321.7475 
L 597.71267 321.7475 
L 597.71267 82.784366 
L 583.678011 82.784366 
z
" clip-path="url(#p0965ac5936)" style="fill: #d98b5f; stroke: #ffffff; stroke-linejoin: miter"/>
   </g>
   <g id="patch_13">
    <path d="M 106.499602 321.7475 
L 120.534261 321.7475 
L 120.534261 237.858481 
L 106.499602 237.858481 
z
" clip-path="url(#p0965ac5936)" style="fill: #75bf71; stroke: #ffffff; stroke-linejoin: miter"/>
   </g>
   <g id="patch_14">
    <path d="M 229.302869 321.7475 
L 243.337528 321.7475 
L 243.337528 169.449725 
L 229.302869 169.449725 
z
" clip-path="url(#p0965ac5936)" style="fill: #75bf71; stroke: #ffffff; stroke-linejoin: miter"/>
   </g>
   <g id="patch_15">
    <path d="M 352.106136 321.7475 
L 366.140795 321.7475 
L 366.140795 168.903301 
L 352.106136 168.903301 
z
" clip-path="url(#p0965ac5936)" style="fill: #75bf71; stroke: #ffffff; stroke-linejoin: miter"/>
   </g>
   <g id="patch_16">
    <path d="M 474.909403 321.7475 
L 488.944063 321.7475 
L 488.944063 166.026319 
L 474.909403 166.026319 
z
" clip-path="url(#p0965ac5936)" style="fill: #75bf71; stroke: #ffffff; stroke-linejoin: miter"/>
   </g>
   <g id="patch_17">
    <path d="M 597.71267 321.7475 
L 611.74733 321.7475 
L 611.74733 72.230413 
L 597.71267 72.230413 
z
" clip-path="url(#p0965ac5936)" style="fill: #75bf71; stroke: #ffffff; stroke-linejoin: miter"/>
   </g>
   <g id="patch_18">
    <path d="M 120.534261 321.7475 
L 134.56892 321.7475 
L 134.56892 238.564574 
L 120.534261 238.564574 
z
" clip-path="url(#p0965ac5936)" style="fill: #c76e6e; stroke: #ffffff; stroke-linejoin: miter"/>
   </g>
   <g id="patch_19">
    <path d="M 243.337528 321.7475 
L 257.372188 321.7475 
L 257.372188 169.739053 
L 243.337528 169.739053 
z
" clip-path="url(#p0965ac5936)" style="fill: #c76e6e; stroke: #ffffff; stroke-linejoin: miter"/>
   </g>
   <g id="patch_20">
    <path d="M 366.140795 321.7475 
L 380.175455 321.7475 
L 380.175455 169.084159 
L 366.140795 169.084159 
z
" clip-path="url(#p0965ac5936)" style="fill: #c76e6e; stroke: #ffffff; stroke-linejoin: miter"/>
   </g>
   <g id="patch_21">
    <path d="M 488.944063 321.7475 
L 502.978722 321.7475 
L 502.978722 166.467554 
L 488.944063 166.467554 
z
" clip-path="url(#p0965ac5936)" style="fill: #c76e6e; stroke: #ffffff; stroke-linejoin: miter"/>
   </g>
   <g id="patch_22">
    <path d="M 611.74733 321.7475 
L 625.781989 321.7475 
L 625.781989 72.539725 
L 611.74733 72.539725 
z
" clip-path="url(#p0965ac5936)" style="fill: #c76e6e; stroke: #ffffff; stroke-linejoin: miter"/>
   </g>
   <g id="patch_23">
    <path d="M 134.56892 321.7475 
L 148.60358 321.7475 
L 148.60358 227.098005 
L 134.56892 227.098005 
z
" clip-path="url(#p0965ac5936)" style="fill: #9475ab; stroke: #ffffff; stroke-linejoin: miter"/>
   </g>
   <g id="patch_24">
    <path d="M 257.372188 321.7475 
L 271.406847 321.7475 
L 271.406847 140.668852 
L 257.372188 140.668852 
z
" clip-path="url(#p0965ac5936)" style="fill: #9475ab; stroke: #ffffff; stroke-linejoin: miter"/>
   </g>
   <g id="patch_25">
    <path d="M 380.175455 321.7475 
L 394.210114 321.7475 
L 394.210114 131.724598 
L 380.175455 131.724598 
z
" clip-path="url(#p0965ac5936)" style="fill: #9475ab; stroke: #ffffff; stroke-linejoin: miter"/>
   </g>
   <g id="patch_26">
    <path d="M 502.978722 321.7475 
L 517.013381 321.7475 
L 517.013381 131.584508 
L 502.978722 131.584508 
z
" clip-path="url(#p0965ac5936)" style="fill: #9475ab; stroke: #ffffff; stroke-linejoin: miter"/>
   </g>
   <g id="patch_27">
    <path d="M 625.781989 321.7475 
L 639.816648 321.7475 
L 639.816648 46.724742 
L 625.781989 46.724742 
z
" clip-path="url(#p0965ac5936)" style="fill: #9475ab; stroke: #ffffff; stroke-linejoin: miter"/>
   </g>
   <g id="patch_28">
    <path d="M 148.60358 321.7475 
L 162.638239 321.7475 
L 162.638239 235.040159 
L 148.60358 235.040159 
z
" clip-path="url(#p0965ac5936)" style="fill: #826246; stroke: #ffffff; stroke-linejoin: miter"/>
   </g>
   <g id="patch_29">
    <path d="M 271.406847 321.7475 
L 285.441506 321.7475 
L 285.441506 175.776745 
L 271.406847 175.776745 
z
" clip-path="url(#p0965ac5936)" style="fill: #826246; stroke: #ffffff; stroke-linejoin: miter"/>
   </g>
   <g id="patch_30">
    <path d="M 394.210114 321.7475 
L 408.244773 321.7475 
L 408.244773 185.363308 
L 394.210114 185.363308 
z
" clip-path="url(#p0965ac5936)" style="fill: #826246; stroke: #ffffff; stroke-linejoin: miter"/>
   </g>
   <g id="patch_31">
    <path d="M 517.013381 321.7475 
L 531.04804 321.7475 
L 531.04804 183.9251 
L 517.013381 183.9251 
z
" clip-path="url(#p0965ac5936)" style="fill: #826246; stroke: #ffffff; stroke-linejoin: miter"/>
   </g>
   <g id="patch_32">
    <path d="M 639.816648 321.7475 
L 653.851307 321.7475 
L 653.851307 89.999102 
L 639.816648 89.999102 
z
" clip-path="url(#p0965ac5936)" style="fill: #826246; stroke: #ffffff; stroke-linejoin: miter"/>
   </g>
   <g id="patch_33">
    <path d="M 162.638239 321.7475 
L 176.672898 321.7475 
L 176.672898 228.393554 
L 162.638239 228.393554 
z
" clip-path="url(#p0965ac5936)" style="fill: #d08abb; stroke: #ffffff; stroke-linejoin: miter"/>
   </g>
   <g id="patch_34">
    <path d="M 285.441506 321.7475 
L 299.476165 321.7475 
L 299.476165 140.55649 
L 285.441506 140.55649 
z
" clip-path="url(#p0965ac5936)" style="fill: #d08abb; stroke: #ffffff; stroke-linejoin: miter"/>
   </g>
   <g id="patch_35">
    <path d="M 408.244773 321.7475 
L 422.279432 321.7475 
L 422.279432 149.671246 
L 408.244773 149.671246 
z
" clip-path="url(#p0965ac5936)" style="fill: #d08abb; stroke: #ffffff; stroke-linejoin: miter"/>
   </g>
   <g id="patch_36">
    <path d="M 531.04804 321.7475 
L 545.082699 321.7475 
L 545.082699 131.793181 
L 531.04804 131.793181 
z
" clip-path="url(#p0965ac5936)" style="fill: #d08abb; stroke: #ffffff; stroke-linejoin: miter"/>
   </g>
   <g id="patch_37">
    <path d="M 653.851307 321.7475 
L 667.885966 321.7475 
L 667.885966 45.20292 
L 653.851307 45.20292 
z
" clip-path="url(#p0965ac5936)" style="fill: #d08abb; stroke: #ffffff; stroke-linejoin: miter"/>
   </g>
   <g id="line2d_8">
    <path clip-path="url(#p0965ac5936)" style="fill: none; stroke: #424242; stroke-width: 2.7; stroke-linecap: round"/>
   </g>
   <g id="line2d_9">
    <path clip-path="url(#p0965ac5936)" style="fill: none; stroke: #424242; stroke-width: 2.7; stroke-linecap: round"/>
   </g>
   <g id="line2d_10">
    <path clip-path="url(#p0965ac5936)" style="fill: none; stroke: #424242; stroke-width: 2.7; stroke-linecap: round"/>
   </g>
   <g id="line2d_11">
    <path clip-path="url(#p0965ac5936)" style="fill: none; stroke: #424242; stroke-width: 2.7; stroke-linecap: round"/>
   </g>
   <g id="line2d_12">
    <path clip-path="url(#p0965ac5936)" style="fill: none; stroke: #424242; stroke-width: 2.7; stroke-linecap: round"/>
   </g>
   <g id="line2d_13">
    <path clip-path="url(#p0965ac5936)" style="fill: none; stroke: #424242; stroke-width: 2.7; stroke-linecap: round"/>
   </g>
   <g id="line2d_14">
    <path clip-path="url(#p0965ac5936)" style="fill: none; stroke: #424242; stroke-width: 2.7; stroke-linecap: round"/>
   </g>
   <g id="line2d_15">
    <path clip-path="url(#p0965ac5936)" style="fill: none; stroke: #424242; stroke-width: 2.7; stroke-linecap: round"/>
   </g>
   <g id="line2d_16">
    <path clip-path="url(#p0965ac5936)" style="fill: none; stroke: #424242; stroke-width: 2.7; stroke-linecap: round"/>
   </g>
   <g id="line2d_17">
    <path clip-path="url(#p0965ac5936)" style="fill: none; stroke: #424242; stroke-width: 2.7; stroke-linecap: round"/>
   </g>
   <g id="line2d_18">
    <path clip-path="url(#p0965ac5936)" style="fill: none; stroke: #424242; stroke-width: 2.7; stroke-linecap: round"/>
   </g>
   <g id="line2d_19">
    <path clip-path="url(#p0965ac5936)" style="fill: none; stroke: #424242; stroke-width: 2.7; stroke-linecap: round"/>
   </g>
   <g id="line2d_20">
    <path clip-path="url(#p0965ac5936)" style="fill: none; stroke: #424242; stroke-width: 2.7; stroke-linecap: round"/>
   </g>
   <g id="line2d_21">
    <path clip-path="url(#p0965ac5936)" style="fill: none; stroke: #424242; stroke-width: 2.7; stroke-linecap: round"/>
   </g>
   <g id="line2d_22">
    <path clip-path="url(#p0965ac5936)" style="fill: none; stroke: #424242; stroke-width: 2.7; stroke-linecap: round"/>
   </g>
   <g id="line2d_23">
    <path clip-path="url(#p0965ac5936)" style="fill: none; stroke: #424242; stroke-width: 2.7; stroke-linecap: round"/>
   </g>
   <g id="line2d_24">
    <path clip-path="url(#p0965ac5936)" style="fill: none; stroke: #424242; stroke-width: 2.7; stroke-linecap: round"/>
   </g>
   <g id="line2d_25">
    <path clip-path="url(#p0965ac5936)" style="fill: none; stroke: #424242; stroke-width: 2.7; stroke-linecap: round"/>
   </g>
   <g id="line2d_26">
    <path clip-path="url(#p0965ac5936)" style="fill: none; stroke: #424242; stroke-width: 2.7; stroke-linecap: round"/>
   </g>
   <g id="line2d_27">
    <path clip-path="url(#p0965ac5936)" style="fill: none; stroke: #424242; stroke-width: 2.7; stroke-linecap: round"/>
   </g>
   <g id="line2d_28">
    <path clip-path="url(#p0965ac5936)" style="fill: none; stroke: #424242; stroke-width: 2.7; stroke-linecap: round"/>
   </g>
   <g id="line2d_29">
    <path clip-path="url(#p0965ac5936)" style="fill: none; stroke: #424242; stroke-width: 2.7; stroke-linecap: round"/>
   </g>
   <g id="line2d_30">
    <path clip-path="url(#p0965ac5936)" style="fill: none; stroke: #424242; stroke-width: 2.7; stroke-linecap: round"/>
   </g>
   <g id="line2d_31">
    <path clip-path="url(#p0965ac5936)" style="fill: none; stroke: #424242; stroke-width: 2.7; stroke-linecap: round"/>
   </g>
   <g id="line2d_32">
    <path clip-path="url(#p0965ac5936)" style="fill: none; stroke: #424242; stroke-width: 2.7; stroke-linecap: round"/>
   </g>
   <g id="line2d_33">
    <path clip-path="url(#p0965ac5936)" style="fill: none; stroke: #424242; stroke-width: 2.7; stroke-linecap: round"/>
   </g>
   <g id="line2d_34">
    <path clip-path="url(#p0965ac5936)" style="fill: none; stroke: #424242; stroke-width: 2.7; stroke-linecap: round"/>
   </g>
   <g id="line2d_35">
    <path clip-path="url(#p0965ac5936)" style="fill: none; stroke: #424242; stroke-width: 2.7; stroke-linecap: round"/>
   </g>
   <g id="line2d_36">
    <path clip-path="url(#p0965ac5936)" style="fill: none; stroke: #424242; stroke-width: 2.7; stroke-linecap: round"/>
   </g>
   <g id="line2d_37">
    <path clip-path="url(#p0965ac5936)" style="fill: none; stroke: #424242; stroke-width: 2.7; stroke-linecap: round"/>
   </g>
   <g id="line2d_38">
    <path clip-path="url(#p0965ac5936)" style="fill: none; stroke: #424242; stroke-width: 2.7; stroke-linecap: round"/>
   </g>
   <g id="line2d_39">
    <path clip-path="url(#p0965ac5936)" style="fill: none; stroke: #424242; stroke-width: 2.7; stroke-linecap: round"/>
   </g>
   <g id="line2d_40">
    <path clip-path="url(#p0965ac5936)" style="fill: none; stroke: #424242; stroke-width: 2.7; stroke-linecap: round"/>
   </g>
   <g id="line2d_41">
    <path clip-path="url(#p0965ac5936)" style="fill: none; stroke: #424242; stroke-width: 2.7; stroke-linecap: round"/>
   </g>
   <g id="line2d_42">
    <path clip-path="url(#p0965ac5936)" style="fill: none; stroke: #424242; stroke-width: 2.7; stroke-linecap: round"/>
   </g>
   <g id="LineCollection_1">
    <path d="M 85.447614 249.124664 
L 85.447614 226.512252 
" clip-path="url(#p0965ac5936)" style="fill: none; stroke: #1a1a1a; stroke-width: 1.5"/>
    <path d="M 208.250881 186.330574 
L 208.250881 152.612681 
" clip-path="url(#p0965ac5936)" style="fill: none; stroke: #1a1a1a; stroke-width: 1.5"/>
    <path d="M 331.054148 185.686379 
L 331.054148 152.554043 
" clip-path="url(#p0965ac5936)" style="fill: none; stroke: #1a1a1a; stroke-width: 1.5"/>
    <path d="M 453.857415 184.181184 
L 453.857415 149.680322 
" clip-path="url(#p0965ac5936)" style="fill: none; stroke: #1a1a1a; stroke-width: 1.5"/>
    <path d="M 576.660682 91.552011 
L 576.660682 56.412751 
" clip-path="url(#p0965ac5936)" style="fill: none; stroke: #1a1a1a; stroke-width: 1.5"/>
    <path d="M 99.482273 249.599236 
L 99.482273 226.857814 
" clip-path="url(#p0965ac5936)" style="fill: none; stroke: #1a1a1a; stroke-width: 1.5"/>
    <path d="M 222.28554 186.63849 
L 222.28554 152.734339 
" clip-path="url(#p0965ac5936)" style="fill: none; stroke: #1a1a1a; stroke-width: 1.5"/>
    <path d="M 345.088807 185.743699 
L 345.088807 152.507761 
" clip-path="url(#p0965ac5936)" style="fill: none; stroke: #1a1a1a; stroke-width: 1.5"/>
    <path d="M 467.892074 183.383784 
L 467.892074 149.153229 
" clip-path="url(#p0965ac5936)" style="fill: none; stroke: #1a1a1a; stroke-width: 1.5"/>
    <path d="M 590.695341 100.086797 
L 590.695341 65.481934 
" clip-path="url(#p0965ac5936)" style="fill: none; stroke: #1a1a1a; stroke-width: 1.5"/>
    <path d="M 113.516932 249.092321 
L 113.516932 226.624641 
" clip-path="url(#p0965ac5936)" style="fill: none; stroke: #1a1a1a; stroke-width: 1.5"/>
    <path d="M 236.320199 186.327516 
L 236.320199 152.571934 
" clip-path="url(#p0965ac5936)" style="fill: none; stroke: #1a1a1a; stroke-width: 1.5"/>
    <path d="M 359.123466 185.480671 
L 359.123466 152.325931 
" clip-path="url(#p0965ac5936)" style="fill: none; stroke: #1a1a1a; stroke-width: 1.5"/>
    <path d="M 481.926733 183.13972 
L 481.926733 148.912917 
" clip-path="url(#p0965ac5936)" style="fill: none; stroke: #1a1a1a; stroke-width: 1.5"/>
    <path d="M 604.73 89.459839 
L 604.73 55.000988 
" clip-path="url(#p0965ac5936)" style="fill: none; stroke: #1a1a1a; stroke-width: 1.5"/>
    <path d="M 127.551591 250.348548 
L 127.551591 226.7806 
" clip-path="url(#p0965ac5936)" style="fill: none; stroke: #1a1a1a; stroke-width: 1.5"/>
    <path d="M 250.354858 186.145879 
L 250.354858 153.332227 
" clip-path="url(#p0965ac5936)" style="fill: none; stroke: #1a1a1a; stroke-width: 1.5"/>
    <path d="M 373.158125 185.340547 
L 373.158125 152.827771 
" clip-path="url(#p0965ac5936)" style="fill: none; stroke: #1a1a1a; stroke-width: 1.5"/>
    <path d="M 495.961392 183.266943 
L 495.961392 149.668164 
" clip-path="url(#p0965ac5936)" style="fill: none; stroke: #1a1a1a; stroke-width: 1.5"/>
    <path d="M 618.764659 89.121349 
L 618.764659 55.958102 
" clip-path="url(#p0965ac5936)" style="fill: none; stroke: #1a1a1a; stroke-width: 1.5"/>
    <path d="M 141.58625 238.728033 
L 141.58625 215.467977 
" clip-path="url(#p0965ac5936)" style="fill: none; stroke: #1a1a1a; stroke-width: 1.5"/>
    <path d="M 264.389517 157.024725 
L 264.389517 124.312979 
" clip-path="url(#p0965ac5936)" style="fill: none; stroke: #1a1a1a; stroke-width: 1.5"/>
    <path d="M 387.192784 147.615906 
L 387.192784 115.833291 
" clip-path="url(#p0965ac5936)" style="fill: none; stroke: #1a1a1a; stroke-width: 1.5"/>
    <path d="M 509.996051 147.316302 
L 509.996051 115.852714 
" clip-path="url(#p0965ac5936)" style="fill: none; stroke: #1a1a1a; stroke-width: 1.5"/>
    <path d="M 632.799318 63.309794 
L 632.799318 30.13969 
" clip-path="url(#p0965ac5936)" style="fill: none; stroke: #1a1a1a; stroke-width: 1.5"/>
    <path d="M 155.620909 246.481746 
L 155.620909 223.598571 
" clip-path="url(#p0965ac5936)" style="fill: none; stroke: #1a1a1a; stroke-width: 1.5"/>
    <path d="M 278.424176 192.679028 
L 278.424176 158.874463 
" clip-path="url(#p0965ac5936)" style="fill: none; stroke: #1a1a1a; stroke-width: 1.5"/>
    <path d="M 401.227443 201.889372 
L 401.227443 168.837244 
" clip-path="url(#p0965ac5936)" style="fill: none; stroke: #1a1a1a; stroke-width: 1.5"/>
    <path d="M 524.03071 200.842969 
L 524.03071 167.007232 
" clip-path="url(#p0965ac5936)" style="fill: none; stroke: #1a1a1a; stroke-width: 1.5"/>
    <path d="M 646.833977 107.223482 
L 646.833977 72.774723 
" clip-path="url(#p0965ac5936)" style="fill: none; stroke: #1a1a1a; stroke-width: 1.5"/>
    <path d="M 169.655568 240.008829 
L 169.655568 216.778278 
" clip-path="url(#p0965ac5936)" style="fill: none; stroke: #1a1a1a; stroke-width: 1.5"/>
    <path d="M 292.458835 157.442895 
L 292.458835 123.670085 
" clip-path="url(#p0965ac5936)" style="fill: none; stroke: #1a1a1a; stroke-width: 1.5"/>
    <path d="M 415.262102 166.290206 
L 415.262102 133.052286 
" clip-path="url(#p0965ac5936)" style="fill: none; stroke: #1a1a1a; stroke-width: 1.5"/>
    <path d="M 538.065369 148.616086 
L 538.065369 114.970276 
" clip-path="url(#p0965ac5936)" style="fill: none; stroke: #1a1a1a; stroke-width: 1.5"/>
    <path d="M 660.868636 62.014397 
L 660.868636 28.391444 
" clip-path="url(#p0965ac5936)" style="fill: none; stroke: #1a1a1a; stroke-width: 1.5"/>
   </g>
   <g id="line2d_43">
    <path d="M 48.9575 245.769581 
L 697.35875 245.769581 
" clip-path="url(#p0965ac5936)" style="fill: none; stroke-dasharray: 5.55,2.4; stroke-dashoffset: 0; stroke: #808080; stroke-width: 1.5"/>
   </g>
   <g id="patch_38">
    <path d="M 48.9575 321.7475 
L 697.35875 321.7475 
" style="fill: none; stroke: #cccccc; stroke-width: 1.25; stroke-linejoin: miter; stroke-linecap: square"/>
   </g>
   <g id="text_15">
    <!-- Average Precision - All Models &amp; Feature Sets -->
    <g style="fill: #262626" transform="translate(209.230625 18.8475)scale(0.16 -0.16)">
     <defs>
      <path id="ArialMT-2d" d="M 203 1375 
L 203 1941 
L 1931 1941 
L 1931 1375 
L 203 1375 
z
" transform="scale(0.015625)"/>
      <path id="ArialMT-4d" d="M 475 0 
L 475 4581 
L 1388 4581 
L 2472 1338 
Q 2622 884 2691 659 
Q 2769 909 2934 1394 
L 4031 4581 
L 4847 4581 
L 4847 0 
L 4263 0 
L 4263 3834 
L 2931 0 
L 2384 0 
L 1059 3900 
L 1059 0 
L 475 0 
z
" transform="scale(0.015625)"/>
      <path id="ArialMT-64" d="M 2575 0 
L 2575 419 
Q 2259 -75 1647 -75 
Q 1250 -75 917 144 
Q 584 363 401 755 
Q 219 1147 219 1656 
Q 219 2153 384 2558 
Q 550 2963 881 3178 
Q 1213 3394 1622 3394 
Q 1922 3394 2156 3267 
Q 2391 3141 2538 2938 
L 2538 4581 
L 3097 4581 
L 3097 0 
L 2575 0 
z
M 797 1656 
Q 797 1019 1065 703 
Q 1334 388 1700 388 
Q 2069 388 2326 689 
Q 2584 991 2584 1609 
Q 2584 2291 2321 2609 
Q 2059 2928 1675 2928 
Q 1300 2928 1048 2622 
Q 797 2316 797 1656 
z
" transform="scale(0.015625)"/>
     </defs>
     <use xlink:href="#ArialMT-41"/>
     <use xlink:href="#ArialMT-76" x="64.949219"/>
     <use xlink:href="#ArialMT-65" x="114.949219"/>
     <use xlink:href="#ArialMT-72" x="170.564453"/>
     <use xlink:href="#ArialMT-61" x="203.865234"/>
     <use xlink:href="#ArialMT-67" x="259.480469"/>
     <use xlink:href="#ArialMT-65" x="315.095703"/>
     <use xlink:href="#ArialMT-20" x="370.710938"/>
     <use xlink:href="#ArialMT-50" x="398.494141"/>
     <use xlink:href="#ArialMT-72" x="465.193359"/>
     <use xlink:href="#ArialMT-65" x="498.494141"/>
     <use xlink:href="#ArialMT-63" x="554.109375"/>
     <use xlink:href="#ArialMT-69" x="604.109375"/>
     <use xlink:href="#ArialMT-73" x="626.326172"/>
     <use xlink:href="#ArialMT-69" x="676.326172"/>
     <use xlink:href="#ArialMT-6f" x="698.542969"/>
     <use xlink:href="#ArialMT-6e" x="754.158203"/>
     <use xlink:href="#ArialMT-20" x="809.773438"/>
     <use xlink:href="#ArialMT-2d" x="837.556641"/>
     <use xlink:href="#ArialMT-20" x="870.857422"/>
     <use xlink:href="#ArialMT-41" x="893.140625"/>
     <use xlink:href="#ArialMT-6c" x="959.839844"/>
     <use xlink:href="#ArialMT-6c" x="982.056641"/>
     <use xlink:href="#ArialMT-20" x="1004.273438"/>
     <use xlink:href="#ArialMT-4d" x="1032.056641"/>
     <use xlink:href="#ArialMT-6f" x="1115.357422"/>
     <use xlink:href="#ArialMT-64" x="1170.972656"/>
     <use xlink:href="#ArialMT-65" x="1226.587891"/>
     <use xlink:href="#ArialMT-6c" x="1282.203125"/>
     <use xlink:href="#ArialMT-73" x="1304.419922"/>
     <use xlink:href="#ArialMT-20" x="1354.419922"/>
     <use xlink:href="#ArialMT-26" x="1382.203125"/>
     <use xlink:href="#ArialMT-20" x="1448.902344"/>
     <use xlink:href="#ArialMT-46" x="1476.685547"/>
     <use xlink:href="#ArialMT-65" x="1537.769531"/>
     <use xlink:href="#ArialMT-61" x="1593.384766"/>
     <use xlink:href="#ArialMT-74" x="1649"/>
     <use xlink:href="#ArialMT-75" x="1676.783203"/>
     <use xlink:href="#ArialMT-72" x="1732.398438"/>
     <use xlink:href="#ArialMT-65" x="1765.699219"/>
     <use xlink:href="#ArialMT-20" x="1821.314453"/>
     <use xlink:href="#ArialMT-53" x="1849.097656"/>
     <use xlink:href="#ArialMT-65" x="1915.796875"/>
     <use xlink:href="#ArialMT-74" x="1971.412109"/>
     <use xlink:href="#ArialMT-73" x="1999.195312"/>
    </g>
   </g>
  </g>
  <g id="legend_1">
   <g id="text_16">
    <!-- Model -->
    <g style="fill: #262626" transform="translate(748.180844 131.255234)scale(0.12 -0.12)">
     <use xlink:href="#ArialMT-4d"/>
     <use xlink:href="#ArialMT-6f" x="83.300781"/>
     <use xlink:href="#ArialMT-64" x="138.916016"/>
     <use xlink:href="#ArialMT-65" x="194.53125"/>
     <use xlink:href="#ArialMT-6c" x="250.146484"/>
    </g>
   </g>
   <g id="patch_39">
    <path d="M 706.333188 147.013828 
L 728.333188 147.013828 
L 728.333188 139.313828 
L 706.333188 139.313828 
z
" style="fill: #597dbf; stroke: #ffffff; stroke-linejoin: miter"/>
   </g>
   <g id="text_17">
    <!-- LR -->
    <g style="fill: #262626" transform="translate(737.133188 147.013828)scale(0.11 -0.11)">
     <defs>
      <path id="ArialMT-52" d="M 503 0 
L 503 4581 
L 2534 4581 
Q 3147 4581 3465 4457 
Q 3784 4334 3975 4021 
Q 4166 3709 4166 3331 
Q 4166 2844 3850 2509 
Q 3534 2175 2875 2084 
Q 3116 1969 3241 1856 
Q 3506 1613 3744 1247 
L 4541 0 
L 3778 0 
L 3172 953 
Q 2906 1366 2734 1584 
Q 2563 1803 2427 1890 
Q 2291 1978 2150 2013 
Q 2047 2034 1813 2034 
L 1109 2034 
L 1109 0 
L 503 0 
z
M 1109 2559 
L 2413 2559 
Q 2828 2559 3062 2645 
Q 3297 2731 3419 2920 
Q 3541 3109 3541 3331 
Q 3541 3656 3305 3865 
Q 3069 4075 2559 4075 
L 1109 4075 
L 1109 2559 
z
" transform="scale(0.015625)"/>
     </defs>
     <use xlink:href="#ArialMT-4c"/>
     <use xlink:href="#ArialMT-52" x="55.615234"/>
    </g>
   </g>
   <g id="patch_40">
    <path d="M 706.333188 162.573672 
L 728.333188 162.573672 
L 728.333188 154.873672 
L 706.333188 154.873672 
z
" style="fill: #d98b5f; stroke: #ffffff; stroke-linejoin: miter"/>
   </g>
   <g id="text_18">
    <!-- LR-EN -->
    <g style="fill: #262626" transform="translate(737.133188 162.573672)scale(0.11 -0.11)">
     <defs>
      <path id="ArialMT-45" d="M 506 0 
L 506 4581 
L 3819 4581 
L 3819 4041 
L 1113 4041 
L 1113 2638 
L 3647 2638 
L 3647 2100 
L 1113 2100 
L 1113 541 
L 3925 541 
L 3925 0 
L 506 0 
z
" transform="scale(0.015625)"/>
     </defs>
     <use xlink:href="#ArialMT-4c"/>
     <use xlink:href="#ArialMT-52" x="55.615234"/>
     <use xlink:href="#ArialMT-2d" x="127.832031"/>
     <use xlink:href="#ArialMT-45" x="161.132812"/>
     <use xlink:href="#ArialMT-4e" x="227.832031"/>
    </g>
   </g>
   <g id="patch_41">
    <path d="M 706.333188 178.133516 
L 728.333188 178.133516 
L 728.333188 170.433516 
L 706.333188 170.433516 
z
" style="fill: #75bf71; stroke: #ffffff; stroke-linejoin: miter"/>
   </g>
   <g id="text_19">
    <!-- LR-L1 -->
    <g style="fill: #262626" transform="translate(737.133188 178.133516)scale(0.11 -0.11)">
     <use xlink:href="#ArialMT-4c"/>
     <use xlink:href="#ArialMT-52" x="55.615234"/>
     <use xlink:href="#ArialMT-2d" x="127.832031"/>
     <use xlink:href="#ArialMT-4c" x="161.132812"/>
     <use xlink:href="#ArialMT-31" x="216.748047"/>
    </g>
   </g>
   <g id="patch_42">
    <path d="M 706.333188 193.693359 
L 728.333188 193.693359 
L 728.333188 185.993359 
L 706.333188 185.993359 
z
" style="fill: #c76e6e; stroke: #ffffff; stroke-linejoin: miter"/>
   </g>
   <g id="text_20">
    <!-- LR-L2 -->
    <g style="fill: #262626" transform="translate(737.133188 193.693359)scale(0.11 -0.11)">
     <use xlink:href="#ArialMT-4c"/>
     <use xlink:href="#ArialMT-52" x="55.615234"/>
     <use xlink:href="#ArialMT-2d" x="127.832031"/>
     <use xlink:href="#ArialMT-4c" x="161.132812"/>
     <use xlink:href="#ArialMT-32" x="216.748047"/>
    </g>
   </g>
   <g id="patch_43">
    <path d="M 706.333188 209.387266 
L 728.333188 209.387266 
L 728.333188 201.687266 
L 706.333188 201.687266 
z
" style="fill: #9475ab; stroke: #ffffff; stroke-linejoin: miter"/>
   </g>
   <g id="text_21">
    <!-- LightGBM -->
    <g style="fill: #262626" transform="translate(737.133188 209.387266)scale(0.11 -0.11)">
     <defs>
      <path id="ArialMT-68" d="M 422 0 
L 422 4581 
L 984 4581 
L 984 2938 
Q 1378 3394 1978 3394 
Q 2347 3394 2619 3248 
Q 2891 3103 3008 2847 
Q 3125 2591 3125 2103 
L 3125 0 
L 2563 0 
L 2563 2103 
Q 2563 2525 2380 2717 
Q 2197 2909 1863 2909 
Q 1613 2909 1392 2779 
Q 1172 2650 1078 2428 
Q 984 2206 984 1816 
L 984 0 
L 422 0 
z
" transform="scale(0.015625)"/>
      <path id="ArialMT-47" d="M 2638 1797 
L 2638 2334 
L 4578 2338 
L 4578 638 
Q 4131 281 3656 101 
Q 3181 -78 2681 -78 
Q 2006 -78 1454 211 
Q 903 500 622 1047 
Q 341 1594 341 2269 
Q 341 2938 620 3517 
Q 900 4097 1425 4378 
Q 1950 4659 2634 4659 
Q 3131 4659 3532 4498 
Q 3934 4338 4162 4050 
Q 4391 3763 4509 3300 
L 3963 3150 
Q 3859 3500 3706 3700 
Q 3553 3900 3268 4020 
Q 2984 4141 2638 4141 
Q 2222 4141 1919 4014 
Q 1616 3888 1430 3681 
Q 1244 3475 1141 3228 
Q 966 2803 966 2306 
Q 966 1694 1177 1281 
Q 1388 869 1791 669 
Q 2194 469 2647 469 
Q 3041 469 3416 620 
Q 3791 772 3984 944 
L 3984 1797 
L 2638 1797 
z
" transform="scale(0.015625)"/>
      <path id="ArialMT-42" d="M 469 0 
L 469 4581 
L 2188 4581 
Q 2713 4581 3030 4442 
Q 3347 4303 3526 4014 
Q 3706 3725 3706 3409 
Q 3706 3116 3547 2856 
Q 3388 2597 3066 2438 
Q 3481 2316 3704 2022 
Q 3928 1728 3928 1328 
Q 3928 1006 3792 729 
Q 3656 453 3456 303 
Q 3256 153 2954 76 
Q 2653 0 2216 0 
L 469 0 
z
M 1075 2656 
L 2066 2656 
Q 2469 2656 2644 2709 
Q 2875 2778 2992 2937 
Q 3109 3097 3109 3338 
Q 3109 3566 3000 3739 
Q 2891 3913 2687 3977 
Q 2484 4041 1991 4041 
L 1075 4041 
L 1075 2656 
z
M 1075 541 
L 2216 541 
Q 2509 541 2628 563 
Q 2838 600 2978 687 
Q 3119 775 3209 942 
Q 3300 1109 3300 1328 
Q 3300 1584 3169 1773 
Q 3038 1963 2805 2039 
Q 2572 2116 2134 2116 
L 1075 2116 
L 1075 541 
z
" transform="scale(0.015625)"/>
     </defs>
     <use xlink:href="#ArialMT-4c"/>
     <use xlink:href="#ArialMT-69" x="55.615234"/>
     <use xlink:href="#ArialMT-67" x="77.832031"/>
     <use xlink:href="#ArialMT-68" x="133.447266"/>
     <use xlink:href="#ArialMT-74" x="189.0625"/>
     <use xlink:href="#ArialMT-47" x="216.845703"/>
     <use xlink:href="#ArialMT-42" x="294.628906"/>
     <use xlink:href="#ArialMT-4d" x="361.328125"/>
    </g>
   </g>
   <g id="patch_44">
    <path d="M 706.333188 225.076016 
L 728.333188 225.076016 
L 728.333188 217.376016 
L 706.333188 217.376016 
z
" style="fill: #826246; stroke: #ffffff; stroke-linejoin: miter"/>
   </g>
   <g id="text_22">
    <!-- LinearSVM -->
    <g style="fill: #262626" transform="translate(737.133188 225.076016)scale(0.11 -0.11)">
     <use xlink:href="#ArialMT-4c"/>
     <use xlink:href="#ArialMT-69" x="55.615234"/>
     <use xlink:href="#ArialMT-6e" x="77.832031"/>
     <use xlink:href="#ArialMT-65" x="133.447266"/>
     <use xlink:href="#ArialMT-61" x="189.0625"/>
     <use xlink:href="#ArialMT-72" x="244.677734"/>
     <use xlink:href="#ArialMT-53" x="277.978516"/>
     <use xlink:href="#ArialMT-56" x="344.677734"/>
     <use xlink:href="#ArialMT-4d" x="411.376953"/>
    </g>
   </g>
   <g id="patch_45">
    <path d="M 706.333188 240.635859 
L 728.333188 240.635859 
L 728.333188 232.935859 
L 706.333188 232.935859 
z
" style="fill: #d08abb; stroke: #ffffff; stroke-linejoin: miter"/>
   </g>
   <g id="text_23">
    <!-- XGBoost -->
    <g style="fill: #262626" transform="translate(737.133188 240.635859)scale(0.11 -0.11)">
     <defs>
      <path id="ArialMT-58" d="M 28 0 
L 1800 2388 
L 238 4581 
L 959 4581 
L 1791 3406 
Q 2050 3041 2159 2844 
Q 2313 3094 2522 3366 
L 3444 4581 
L 4103 4581 
L 2494 2422 
L 4228 0 
L 3478 0 
L 2325 1634 
Q 2228 1775 2125 1941 
Q 1972 1691 1906 1597 
L 756 0 
L 28 0 
z
" transform="scale(0.015625)"/>
     </defs>
     <use xlink:href="#ArialMT-58"/>
     <use xlink:href="#ArialMT-47" x="66.699219"/>
     <use xlink:href="#ArialMT-42" x="144.482422"/>
     <use xlink:href="#ArialMT-6f" x="211.181641"/>
     <use xlink:href="#ArialMT-6f" x="266.796875"/>
     <use xlink:href="#ArialMT-73" x="322.412109"/>
     <use xlink:href="#ArialMT-74" x="372.412109"/>
    </g>
   </g>
   <g id="line2d_44">
    <path d="M 706.333188 252.479766 
L 717.333188 252.479766 
L 728.333188 252.479766 
" style="fill: none; stroke-dasharray: 5.55,2.4; stroke-dashoffset: 0; stroke: #808080; stroke-width: 1.5"/>
   </g>
   <g id="text_24">
    <!-- Baseline (NEWS) -->
    <g style="fill: #262626" transform="translate(737.133188 256.329766)scale(0.11 -0.11)">
     <defs>
      <path id="ArialMT-28" d="M 1497 -1347 
Q 1031 -759 709 28 
Q 388 816 388 1659 
Q 388 2403 628 3084 
Q 909 3875 1497 4659 
L 1900 4659 
Q 1522 4009 1400 3731 
Q 1209 3300 1100 2831 
Q 966 2247 966 1656 
Q 966 153 1900 -1347 
L 1497 -1347 
z
" transform="scale(0.015625)"/>
      <path id="ArialMT-57" d="M 1294 0 
L 78 4581 
L 700 4581 
L 1397 1578 
Q 1509 1106 1591 641 
Q 1766 1375 1797 1488 
L 2669 4581 
L 3400 4581 
L 4056 2263 
Q 4303 1400 4413 641 
Q 4500 1075 4641 1638 
L 5359 4581 
L 5969 4581 
L 4713 0 
L 4128 0 
L 3163 3491 
Q 3041 3928 3019 4028 
Q 2947 3713 2884 3491 
L 1913 0 
L 1294 0 
z
" transform="scale(0.015625)"/>
      <path id="ArialMT-29" d="M 791 -1347 
L 388 -1347 
Q 1322 153 1322 1656 
Q 1322 2244 1188 2822 
Q 1081 3291 891 3722 
Q 769 4003 388 4659 
L 791 4659 
Q 1378 3875 1659 3084 
Q 1900 2403 1900 1659 
Q 1900 816 1576 28 
Q 1253 -759 791 -1347 
z
" transform="scale(0.015625)"/>
     </defs>
     <use xlink:href="#ArialMT-42"/>
     <use xlink:href="#ArialMT-61" x="66.699219"/>
     <use xlink:href="#ArialMT-73" x="122.314453"/>
     <use xlink:href="#ArialMT-65" x="172.314453"/>
     <use xlink:href="#ArialMT-6c" x="227.929688"/>
     <use xlink:href="#ArialMT-69" x="250.146484"/>
     <use xlink:href="#ArialMT-6e" x="272.363281"/>
     <use xlink:href="#ArialMT-65" x="327.978516"/>
     <use xlink:href="#ArialMT-20" x="383.59375"/>
     <use xlink:href="#ArialMT-28" x="411.376953"/>
     <use xlink:href="#ArialMT-4e" x="444.677734"/>
     <use xlink:href="#ArialMT-45" x="516.894531"/>
     <use xlink:href="#ArialMT-57" x="583.59375"/>
     <use xlink:href="#ArialMT-53" x="677.978516"/>
     <use xlink:href="#ArialMT-29" x="744.677734"/>
    </g>
   </g>
  </g>
 </g>
 <defs>
  <clipPath id="p0965ac5936">
   <rect x="48.9575" y="24.8475" width="648.40125" height="296.9"/>
  </clipPath>
 </defs>
</svg>
